<svg width="38" height="38" viewBox="0 0 38 38" fill="none" xmlns="http://www.w3.org/2000/svg">
<mask id="mask0_7702_3115" style="mask-type:alpha" maskUnits="userSpaceOnUse" x="0" y="0" width="38" height="38">
<rect width="38" height="38" fill="#D0343A"/>
</mask>
<g mask="url(#mask0_7702_3115)">
<path d="M7.41699 38.2915V14.492H14.4925V7.4165H31.2165V21.5675H38.292V38.2915H25.1272V31.216H20.5817V38.2915H7.41699ZM9.98991 35.7186H14.4925V31.216H9.98991V35.7186ZM9.98991 28.6431H14.4925V24.1405H9.98991V28.6431ZM9.98991 21.5675H14.4925V17.0649H9.98991V21.5675ZM17.0654 28.6431H21.568V24.1405H17.0654V28.6431ZM17.0654 21.5675H21.568V17.0649H17.0654V21.5675ZM17.0654 14.492H21.568V9.98942H17.0654V14.492ZM24.141 28.6431H28.6436V24.1405H24.141V28.6431ZM24.141 21.5675H28.6436V17.0649H24.141V21.5675ZM24.141 14.492H28.6436V9.98942H24.141V14.492ZM31.2165 35.7186H35.7191V31.216H31.2165V35.7186ZM31.2165 28.6431H35.7191V24.1405H31.2165V28.6431Z" fill="#F38B00"/>
</g>
</svg>
