<svg width="34" height="17" viewBox="0 0 34 17" fill="none" xmlns="http://www.w3.org/2000/svg">
<mask id="path-1-outside-1_10009_751" maskUnits="userSpaceOnUse" x="0" y="0" width="34" height="17" fill="black">
<rect fill="white" width="34" height="17"/>
<path d="M30.0754 13.1907C30.3232 13.5024 30.4529 13.8969 30.4401 14.3005C30.4472 14.7169 30.2918 15.0592 30.0776 15.4032H32.8001L33 15.6818C32.9592 15.7718 32.9248 15.8479 32.8837 15.9386C32.8034 16.0161 32.6874 15.9982 32.5757 15.9982C22.1077 15.9984 11.6337 15.9985 1.15369 15.9984L1.00974 15.8022C0.992044 15.6294 1.01043 15.4779 1.25633 15.4052C2.03952 15.4052 2.88043 15.4052 3.74815 15.4052C3.65878 15.2625 3.57688 15.1149 3.50279 14.963C3.43896 14.8026 3.39841 14.6333 3.38247 14.4605C3.35908 14.2343 3.37913 14.0055 3.44147 13.7873C3.5038 13.5691 3.60719 13.3659 3.74569 13.1892C3.67806 13.1862 3.62253 13.1817 3.56699 13.1816C3.2078 13.1809 2.84818 13.1704 2.48957 13.1854C2.28953 13.1812 2.08999 13.163 1.89231 13.1309C1.74234 13.1069 1.60299 13.0361 1.49281 12.928C1.32531 12.8011 1.19113 12.6328 1.10248 12.4385C1.04568 12.3083 1.01299 12.1681 1.00611 12.0254C1.00595 9.49623 1.00591 6.96706 1.006 4.43789C1.006 4.40003 0.990889 4.35008 1.00863 4.32642C1.08212 4.22844 1.02973 4.11182 1.06454 4.00869C1.12542 3.82288 1.19879 3.64173 1.28413 3.46655C1.31995 3.39023 1.36192 3.31717 1.4096 3.24816C1.45803 3.19138 1.50926 3.13723 1.56308 3.08591C1.75288 2.85682 1.98275 2.66691 2.2406 2.52617C2.43911 2.43221 2.64706 2.36133 2.86064 2.31484C2.99954 2.29067 3.13993 2.2768 3.28074 2.27333C3.31545 2.00815 3.42926 1.76081 3.60626 1.56585C3.79515 1.32997 4.05064 1.16127 4.33684 1.08344C4.3558 1.07842 4.37082 1.05253 4.38911 1.05057C4.55074 1.027 4.71344 1.01203 4.87656 1.00571C12.9035 1.00355 20.9304 1.00165 28.9573 1C29.0883 0.99993 29.207 1.05846 29.3348 1.04811C29.4659 1.03749 29.5711 1.12085 29.6931 1.14635C29.786 1.17281 29.8709 1.22345 29.9396 1.29344C30.202 1.53906 30.449 1.79843 30.5226 2.1788C30.5365 2.21494 30.5555 2.24874 30.579 2.27907C30.8012 2.24512 31.0121 2.31989 31.2191 2.37504C31.4215 2.43703 31.6137 2.53005 31.7894 2.65102C31.9348 2.74406 32.0297 2.89976 32.187 2.9746C32.3095 3.16842 32.4872 3.32559 32.5822 3.53284C32.6678 3.72502 32.7312 3.92699 32.7711 4.13456C32.8098 4.39937 32.8216 4.66764 32.8065 4.935C32.8098 7.28993 32.8106 9.64487 32.8089 11.9998C32.8093 12.1368 32.7832 12.2724 32.7322 12.3987C32.6812 12.5251 32.6062 12.6396 32.5118 12.7354C32.3944 12.861 32.289 13.0041 32.1145 13.0596C32.0243 13.0931 31.9319 13.1197 31.8379 13.1391C31.2594 13.2318 30.6774 13.1488 30.0754 13.1907ZM5.93686 9.27355H31.971C32.0222 9.2772 32.0735 9.27649 32.1246 9.27144C32.1621 9.26038 32.198 9.2444 32.2316 9.22388V4.96503H5.93686V9.27355ZM32.1734 4.31624C32.178 4.30883 32.1937 4.29447 32.1913 4.28522C32.1698 4.20389 32.1493 4.12184 32.1203 4.04322C32.0883 3.95843 32.0522 3.87537 32.0121 3.79433C31.9015 3.57812 31.7469 3.38939 31.5589 3.24124C31.2373 3.00262 30.8528 2.87192 30.4572 2.86678C21.538 2.86678 12.6188 2.86734 3.69958 2.86845C3.47729 2.85357 3.25409 2.86585 3.03458 2.90504C2.89467 2.93747 2.7575 2.98149 2.6244 3.03667C2.35288 3.15292 2.11741 3.34416 1.94367 3.58953C1.7982 3.81265 1.68706 4.0578 1.61423 4.31624L32.1734 4.31624ZM12.1185 13.1896C12.1501 13.1896 12.2204 13.3037 12.2378 13.3294C12.2705 13.379 12.2985 13.4317 12.3216 13.4867C12.4416 13.74 12.5029 14.0187 12.5007 14.3008C12.4984 14.5829 12.4327 14.8606 12.3087 15.1118C12.2582 15.2085 12.1949 15.2981 12.1328 15.3979H21.6833C21.4634 15.0552 21.3141 14.7091 21.3211 14.2905C21.3106 13.8904 21.4394 13.4996 21.6839 13.1896H12.1185ZM32.177 9.87085H5.94344V10.2218H32.2313V9.92694L32.177 9.87085ZM3.52072 4.96137V9.21311L3.57425 9.26841H5.35256V4.96137H3.52072ZM1.58532 4.96152V9.21314L1.63869 9.26827H2.93327V4.96152H1.58532ZM12.8307 12.5414V10.871C12.0597 10.8401 9.64136 10.8523 9.45917 10.8862V12.5414H12.8307ZM16.7899 12.5413V10.8717C16.1247 10.8423 13.5992 10.8537 13.4176 10.8854V12.5414L16.7899 12.5413ZM21.3758 12.5378H24.7506C24.776 11.9824 24.7716 11.426 24.7376 10.8712H21.3758L21.3758 12.5378ZM28.7101 12.5415V10.8713C27.9813 10.8409 25.5202 10.8528 25.3383 10.8859V12.5415L28.7101 12.5415ZM17.4204 10.8677V12.5372C18.0766 12.5665 20.5674 12.5551 20.7487 12.5236V10.8677H17.4204ZM8.87556 10.871H5.94351V12.5379H8.87556V10.871ZM29.293 12.5451C30.0807 12.5451 30.8492 12.5379 31.6174 12.5492C31.7714 12.5451 31.9187 12.4831 32.0318 12.3747C32.1448 12.2663 32.2158 12.1189 32.2315 11.9602C32.2551 11.6004 32.2366 11.2376 32.2366 10.8719H29.293L29.293 12.5451ZM3.53524 10.8639C3.50422 11.4212 3.50438 11.9798 3.53571 12.5371H5.36069C5.36069 12.2501 5.36245 11.9711 5.36019 11.6921C5.35795 11.4159 5.37041 11.1392 5.35246 10.8639L3.53524 10.8639ZM2.94142 10.8708H1.57783C1.57783 11.2163 1.56569 11.5556 1.58266 11.8933C1.57887 11.9875 1.59657 12.0813 1.63433 12.1671C1.67208 12.2529 1.72882 12.3282 1.79995 12.3871C1.87818 12.4441 1.96172 12.4933 2.02828 12.5366H2.94142V10.8708ZM10.1373 15.1064C10.236 15.2066 10.3532 15.285 10.482 15.3368C10.6108 15.3886 10.7484 15.4127 10.8865 15.4077C11.0246 15.4027 11.1602 15.3687 11.2852 15.3077C11.4102 15.2467 11.5219 15.1601 11.6135 15.053C12.0373 14.5941 12.0609 13.8804 11.4708 13.3805C11.3499 13.2746 11.2019 13.2074 11.0447 13.1871C10.8801 13.1657 10.7131 13.1739 10.5512 13.2113C10.2898 13.2785 10.2772 13.3048 10.1603 13.4579C10.3789 13.424 10.6019 13.4737 10.7878 13.5975C10.8844 13.6587 10.9652 13.7431 11.0236 13.8436C11.0819 13.944 11.116 14.0576 11.1229 14.1746C11.1412 14.3275 11.1227 14.4826 11.069 14.6263C10.9855 14.8064 10.8425 14.9498 10.666 15.0304C10.6011 15.0515 10.5344 15.0663 10.4668 15.0746C10.4172 15.0818 10.3673 15.0872 10.3174 15.092C10.2896 15.0947 10.1549 15.1238 10.1373 15.1064ZM5.77096 15.0962C5.75053 15.1141 5.60674 15.0871 5.57526 15.0857C5.50289 15.0845 5.43068 15.0781 5.35917 15.0665C5.23173 15.0396 5.11389 14.9769 5.01852 14.8853C4.9294 14.8083 4.85823 14.7113 4.81031 14.6018C4.7624 14.4923 4.73898 14.3729 4.7418 14.2527C4.74462 14.1325 4.7736 14.0145 4.8266 13.9075C4.87959 13.8005 4.95522 13.7073 5.04785 13.6348C5.25144 13.4696 5.50313 13.471 5.74958 13.438C5.51644 13.2437 5.21996 13.15 4.9218 13.1763C4.5714 13.1887 4.33914 13.3991 4.14917 13.6504C4.07117 13.7522 4.01386 13.8692 3.98071 13.9945C3.94756 14.1198 3.93924 14.2508 3.95627 14.3795C3.99995 14.6466 4.11577 14.8954 4.29033 15.0972C4.81543 15.4922 5.28075 15.5253 5.77096 15.0962ZM28.1067 15.0896C28.1041 15.1232 28.0968 15.1468 28.1027 15.1511C28.315 15.3265 28.5812 15.4168 28.8525 15.4054C28.9407 15.3931 29.0275 15.3714 29.1113 15.3405C29.1837 15.3222 29.2538 15.2951 29.3201 15.2598C29.556 15.1153 29.7317 14.8853 29.8131 14.6143C29.8949 14.3512 29.8744 14.0655 29.7561 13.8178C29.6785 13.6703 29.5784 13.5368 29.4597 13.4223C29.3766 13.3351 29.2749 13.2692 29.1627 13.2299C28.9576 13.1437 28.7374 13.1897 28.5235 13.1825C28.5131 13.1822 28.5033 13.207 28.4912 13.2096C28.3348 13.2542 28.1887 13.3307 28.0614 13.4348C28.0665 13.4401 28.0716 13.4499 28.0769 13.4501C28.135 13.4522 28.1932 13.4528 28.2513 13.4539L28.5939 13.5305C28.6872 13.5691 28.7721 13.6268 28.8435 13.7001C28.9148 13.7735 28.9713 13.8609 29.0093 13.9572C29.0718 14.1403 29.0798 14.3385 29.0323 14.5263C28.9941 14.6669 28.9152 14.792 28.8063 14.8848C28.7476 14.9522 28.6754 15.0055 28.5947 15.0409C28.5141 15.0763 28.4269 15.0929 28.3394 15.0897C28.261 15.0893 28.1827 15.0896 28.1067 15.0896ZM23.6619 15.0896C23.6197 15.0896 23.5851 15.0864 23.5511 15.0901C23.4166 15.1047 23.2807 15.0832 23.1565 15.0277C23.0324 14.9721 22.9241 14.8843 22.8422 14.7728C22.7629 14.6743 22.7125 14.5544 22.6968 14.4271C22.6649 14.2247 22.7068 14.0172 22.8143 13.8449C22.8649 13.7508 22.9363 13.6704 23.0225 13.6101C23.1087 13.5499 23.2074 13.5115 23.3106 13.498C23.3712 13.4912 23.4296 13.4622 23.4903 13.4556C23.5609 13.4512 23.6317 13.4506 23.7023 13.4539C23.6852 13.4204 23.6632 13.4193 23.6496 13.4077C23.5474 13.319 23.4285 13.2533 23.3006 13.2146C23.1726 13.1758 23.0382 13.165 22.906 13.1827C22.8288 13.184 22.752 13.1928 22.6765 13.2091C22.4837 13.2766 22.3114 13.3954 22.1768 13.5535C22.0135 13.7306 21.9167 13.9622 21.9038 14.2066C21.8855 14.4671 21.96 14.7254 22.1133 14.9327C22.2387 15.1224 22.4224 15.2626 22.6344 15.3305C22.848 15.4205 23.086 15.4266 23.3036 15.3477C23.4227 15.2964 23.5378 15.2359 23.648 15.1665C23.6588 15.1602 23.6556 15.128 23.6619 15.0896ZM9.16058 14.0973H6.72362C6.72672 14.236 6.71932 14.3681 6.72827 14.4926H9.13435L9.16058 14.0973ZM27.0858 14.098H24.6702C24.6738 14.2375 24.6647 14.3692 24.6756 14.4909H27.0858L27.0858 14.098ZM9.53557 15.3964L9.34007 15.0971H6.53054L6.3562 15.3964H9.53557ZM27.4659 15.397C27.3976 15.2804 27.3416 15.1847 27.2859 15.0897C26.3472 15.0897 25.4095 15.0897 24.4728 15.0898L24.2978 15.397H27.4659ZM24.463 13.4538H27.2987L27.4547 13.2053C27.2479 13.1715 24.4905 13.1731 24.3063 13.2073C24.3578 13.2884 24.4067 13.3653 24.463 13.4538ZM6.52453 13.4475H9.35817C9.37302 13.4145 9.38972 13.3824 9.4082 13.3514C9.42838 13.3213 9.45713 13.2972 9.47699 13.267C9.49367 13.2415 9.5403 13.2336 9.52991 13.1921H6.37031L6.52453 13.4475ZM3.51719 10.2211H5.35004V9.86424H5.12034C4.64506 9.86424 4.16978 9.86432 3.6945 9.86446C3.63076 9.86452 3.5599 9.84563 3.51719 9.93915L3.51719 10.2211ZM1.58552 9.92445V10.2168H2.9344V9.86835H1.63982L1.58552 9.92445ZM7.20431 1.64708H6.50844V2.20834L6.5626 2.26886H7.14914L7.20431 2.21187L7.20431 1.64708ZM15.3086 1.64361V2.21506L15.364 2.27233H15.9636C16.0527 2.06763 15.9832 1.85395 16.0075 1.64361H15.3086ZM24.7992 1.64689H24.1033V2.21061L24.1577 2.26905H24.7437L24.7992 2.21169L24.7992 1.64689ZM5.92862 1.64728H5.28371V2.26875H5.92862L5.92862 1.64728ZM7.78711 1.64393V2.26472H8.43262V1.64393H7.78711ZM9.06319 1.64379V2.27608C9.17941 2.27608 9.2882 2.27796 9.39689 2.27555C9.50054 2.28119 9.60445 2.2789 9.70777 2.26868V1.64379H9.06319ZM10.2872 2.26973C10.5044 2.28126 10.7221 2.28061 10.9393 2.26779V1.63995C10.8228 1.63995 10.714 1.63801 10.6053 1.6405C10.4992 1.63454 10.3928 1.63738 10.2872 1.64898V2.26973ZM12.219 1.64752H11.5628C11.5628 1.75963 11.5609 1.86441 11.5634 1.96906C11.5577 2.06892 11.5602 2.1691 11.571 2.26851H12.219V1.64752ZM14.7261 1.64786H14.0701C14.0701 1.76043 14.068 1.86528 14.0707 1.97001C14.0646 2.06945 14.0673 2.16925 14.0787 2.26817H14.7261V1.64786ZM16.5811 2.26822H17.2371C17.2371 2.15572 17.2392 2.05088 17.2365 1.94616C17.2426 1.84667 17.2399 1.74681 17.2285 1.64781H16.5811V2.26822ZM19.0883 2.26822H19.7444C19.7444 2.15572 19.7464 2.05088 19.7438 1.94616C19.7498 1.84667 19.7471 1.74681 19.7358 1.64781H19.0883L19.0883 2.26822ZM21.0127 2.2723V1.63995C20.8968 1.63995 20.7881 1.63819 20.6795 1.64045C20.5755 1.63513 20.4712 1.63734 20.3675 1.64707V2.2723L21.0127 2.2723ZM22.8748 1.64364V2.27608C22.9908 2.27608 23.0996 2.27789 23.2082 2.27557C23.3121 2.281 23.4162 2.27876 23.5198 2.26887V1.64364H22.8748ZM26.0269 2.27225V1.63995C25.9106 1.63995 25.8019 1.63807 25.6932 1.64049C25.5895 1.63485 25.4856 1.63714 25.3823 1.64735V2.27225H26.0269ZM27.8855 2.26846H28.5417C28.5417 2.15629 28.5437 2.05151 28.5412 1.94684C28.5469 1.84704 28.5444 1.74691 28.5334 1.64757H27.8855V2.26846ZM13.4508 1.64707H12.7986V2.20711L12.8517 2.26826H13.4508V1.64707ZM17.8571 2.27608C18.0416 2.27608 18.2224 2.27902 18.4029 2.27368C18.4405 2.26481 18.4762 2.24852 18.5079 2.22569V1.64858H17.8571V2.27608ZM22.2444 2.27228V1.65104H21.5984V2.21479L21.6541 2.27228H22.2444ZM26.6537 2.26889H27.2511L27.3101 2.20793C27.3101 2.11655 27.3121 2.01928 27.3095 1.92215C27.3161 1.83062 27.3131 1.73863 27.3007 1.64777H26.6537L26.6537 2.26889ZM4.69669 1.64214C4.51622 1.64044 4.34102 1.70518 4.20235 1.82482C4.05318 1.9283 3.94729 2.08637 3.90594 2.26732H4.6434L4.6967 2.21226L4.69669 1.64214ZM29.899 2.27534C29.854 1.95542 29.5038 1.65812 29.1678 1.65219V2.27534H29.899ZM9.7667 14.0842V14.5035C9.7667 14.5035 9.98904 14.4996 10.0201 14.4997C10.0893 14.5 10.1585 14.4997 10.2278 14.4991C10.2826 14.5026 10.3374 14.4925 10.3876 14.4695C10.4378 14.4465 10.4819 14.4114 10.5162 14.367C10.5339 14.3451 10.545 14.3183 10.5481 14.2899C10.5468 14.2565 10.537 14.2241 10.5195 14.196C10.5106 14.1762 10.4989 14.158 10.4848 14.1419C10.416 14.0711 10.2385 14.0831 10.1498 14.0849C10.0222 14.0948 9.89418 14.0945 9.7667 14.0842ZM5.36197 14.4388C5.37194 14.5123 5.51076 14.491 5.5819 14.4954C5.75464 14.5062 5.92843 14.4989 6.09035 14.4989C6.11157 14.4061 6.09044 14.3305 6.10418 14.2704C6.08661 14.2065 6.11031 14.153 6.09428 14.0948H5.48013C5.3972 14.1141 5.37397 14.1447 5.36197 14.199V14.4388ZM24.0551 14.1127C24.0435 14.1051 24.032 14.091 24.0203 14.091C23.8378 14.0896 23.6552 14.09 23.4726 14.09C23.458 14.09 23.4409 14.0849 23.4292 14.0909C23.3874 14.1126 23.3475 14.138 23.3186 14.1551L23.2795 14.2967C23.3194 14.474 23.4498 14.5033 23.6015 14.4996C23.7323 14.4964 23.8631 14.4989 23.9863 14.4989L24.0551 14.4319C24.0551 14.324 24.0551 14.2183 24.0551 14.1127ZM28.4365 14.1382C28.1969 14.0406 27.9534 14.1142 27.7096 14.0859V14.4219L27.7675 14.4979H28.3197C28.3763 14.4391 28.4415 14.3714 28.4909 14.32L28.4365 14.1382Z"/>
</mask>
<path d="M30.0754 13.1907C30.3232 13.5024 30.4529 13.8969 30.4401 14.3005C30.4472 14.7169 30.2918 15.0592 30.0776 15.4032H32.8001L33 15.6818C32.9592 15.7718 32.9248 15.8479 32.8837 15.9386C32.8034 16.0161 32.6874 15.9982 32.5757 15.9982C22.1077 15.9984 11.6337 15.9985 1.15369 15.9984L1.00974 15.8022C0.992044 15.6294 1.01043 15.4779 1.25633 15.4052C2.03952 15.4052 2.88043 15.4052 3.74815 15.4052C3.65878 15.2625 3.57688 15.1149 3.50279 14.963C3.43896 14.8026 3.39841 14.6333 3.38247 14.4605C3.35908 14.2343 3.37913 14.0055 3.44147 13.7873C3.5038 13.5691 3.60719 13.3659 3.74569 13.1892C3.67806 13.1862 3.62253 13.1817 3.56699 13.1816C3.2078 13.1809 2.84818 13.1704 2.48957 13.1854C2.28953 13.1812 2.08999 13.163 1.89231 13.1309C1.74234 13.1069 1.60299 13.0361 1.49281 12.928C1.32531 12.8011 1.19113 12.6328 1.10248 12.4385C1.04568 12.3083 1.01299 12.1681 1.00611 12.0254C1.00595 9.49623 1.00591 6.96706 1.006 4.43789C1.006 4.40003 0.990889 4.35008 1.00863 4.32642C1.08212 4.22844 1.02973 4.11182 1.06454 4.00869C1.12542 3.82288 1.19879 3.64173 1.28413 3.46655C1.31995 3.39023 1.36192 3.31717 1.4096 3.24816C1.45803 3.19138 1.50926 3.13723 1.56308 3.08591C1.75288 2.85682 1.98275 2.66691 2.2406 2.52617C2.43911 2.43221 2.64706 2.36133 2.86064 2.31484C2.99954 2.29067 3.13993 2.2768 3.28074 2.27333C3.31545 2.00815 3.42926 1.76081 3.60626 1.56585C3.79515 1.32997 4.05064 1.16127 4.33684 1.08344C4.3558 1.07842 4.37082 1.05253 4.38911 1.05057C4.55074 1.027 4.71344 1.01203 4.87656 1.00571C12.9035 1.00355 20.9304 1.00165 28.9573 1C29.0883 0.99993 29.207 1.05846 29.3348 1.04811C29.4659 1.03749 29.5711 1.12085 29.6931 1.14635C29.786 1.17281 29.8709 1.22345 29.9396 1.29344C30.202 1.53906 30.449 1.79843 30.5226 2.1788C30.5365 2.21494 30.5555 2.24874 30.579 2.27907C30.8012 2.24512 31.0121 2.31989 31.2191 2.37504C31.4215 2.43703 31.6137 2.53005 31.7894 2.65102C31.9348 2.74406 32.0297 2.89976 32.187 2.9746C32.3095 3.16842 32.4872 3.32559 32.5822 3.53284C32.6678 3.72502 32.7312 3.92699 32.7711 4.13456C32.8098 4.39937 32.8216 4.66764 32.8065 4.935C32.8098 7.28993 32.8106 9.64487 32.8089 11.9998C32.8093 12.1368 32.7832 12.2724 32.7322 12.3987C32.6812 12.5251 32.6062 12.6396 32.5118 12.7354C32.3944 12.861 32.289 13.0041 32.1145 13.0596C32.0243 13.0931 31.9319 13.1197 31.8379 13.1391C31.2594 13.2318 30.6774 13.1488 30.0754 13.1907ZM5.93686 9.27355H31.971C32.0222 9.2772 32.0735 9.27649 32.1246 9.27144C32.1621 9.26038 32.198 9.2444 32.2316 9.22388V4.96503H5.93686V9.27355ZM32.1734 4.31624C32.178 4.30883 32.1937 4.29447 32.1913 4.28522C32.1698 4.20389 32.1493 4.12184 32.1203 4.04322C32.0883 3.95843 32.0522 3.87537 32.0121 3.79433C31.9015 3.57812 31.7469 3.38939 31.5589 3.24124C31.2373 3.00262 30.8528 2.87192 30.4572 2.86678C21.538 2.86678 12.6188 2.86734 3.69958 2.86845C3.47729 2.85357 3.25409 2.86585 3.03458 2.90504C2.89467 2.93747 2.7575 2.98149 2.6244 3.03667C2.35288 3.15292 2.11741 3.34416 1.94367 3.58953C1.7982 3.81265 1.68706 4.0578 1.61423 4.31624L32.1734 4.31624ZM12.1185 13.1896C12.1501 13.1896 12.2204 13.3037 12.2378 13.3294C12.2705 13.379 12.2985 13.4317 12.3216 13.4867C12.4416 13.74 12.5029 14.0187 12.5007 14.3008C12.4984 14.5829 12.4327 14.8606 12.3087 15.1118C12.2582 15.2085 12.1949 15.2981 12.1328 15.3979H21.6833C21.4634 15.0552 21.3141 14.7091 21.3211 14.2905C21.3106 13.8904 21.4394 13.4996 21.6839 13.1896H12.1185ZM32.177 9.87085H5.94344V10.2218H32.2313V9.92694L32.177 9.87085ZM3.52072 4.96137V9.21311L3.57425 9.26841H5.35256V4.96137H3.52072ZM1.58532 4.96152V9.21314L1.63869 9.26827H2.93327V4.96152H1.58532ZM12.8307 12.5414V10.871C12.0597 10.8401 9.64136 10.8523 9.45917 10.8862V12.5414H12.8307ZM16.7899 12.5413V10.8717C16.1247 10.8423 13.5992 10.8537 13.4176 10.8854V12.5414L16.7899 12.5413ZM21.3758 12.5378H24.7506C24.776 11.9824 24.7716 11.426 24.7376 10.8712H21.3758L21.3758 12.5378ZM28.7101 12.5415V10.8713C27.9813 10.8409 25.5202 10.8528 25.3383 10.8859V12.5415L28.7101 12.5415ZM17.4204 10.8677V12.5372C18.0766 12.5665 20.5674 12.5551 20.7487 12.5236V10.8677H17.4204ZM8.87556 10.871H5.94351V12.5379H8.87556V10.871ZM29.293 12.5451C30.0807 12.5451 30.8492 12.5379 31.6174 12.5492C31.7714 12.5451 31.9187 12.4831 32.0318 12.3747C32.1448 12.2663 32.2158 12.1189 32.2315 11.9602C32.2551 11.6004 32.2366 11.2376 32.2366 10.8719H29.293L29.293 12.5451ZM3.53524 10.8639C3.50422 11.4212 3.50438 11.9798 3.53571 12.5371H5.36069C5.36069 12.2501 5.36245 11.9711 5.36019 11.6921C5.35795 11.4159 5.37041 11.1392 5.35246 10.8639L3.53524 10.8639ZM2.94142 10.8708H1.57783C1.57783 11.2163 1.56569 11.5556 1.58266 11.8933C1.57887 11.9875 1.59657 12.0813 1.63433 12.1671C1.67208 12.2529 1.72882 12.3282 1.79995 12.3871C1.87818 12.4441 1.96172 12.4933 2.02828 12.5366H2.94142V10.8708ZM10.1373 15.1064C10.236 15.2066 10.3532 15.285 10.482 15.3368C10.6108 15.3886 10.7484 15.4127 10.8865 15.4077C11.0246 15.4027 11.1602 15.3687 11.2852 15.3077C11.4102 15.2467 11.5219 15.1601 11.6135 15.053C12.0373 14.5941 12.0609 13.8804 11.4708 13.3805C11.3499 13.2746 11.2019 13.2074 11.0447 13.1871C10.8801 13.1657 10.7131 13.1739 10.5512 13.2113C10.2898 13.2785 10.2772 13.3048 10.1603 13.4579C10.3789 13.424 10.6019 13.4737 10.7878 13.5975C10.8844 13.6587 10.9652 13.7431 11.0236 13.8436C11.0819 13.944 11.116 14.0576 11.1229 14.1746C11.1412 14.3275 11.1227 14.4826 11.069 14.6263C10.9855 14.8064 10.8425 14.9498 10.666 15.0304C10.6011 15.0515 10.5344 15.0663 10.4668 15.0746C10.4172 15.0818 10.3673 15.0872 10.3174 15.092C10.2896 15.0947 10.1549 15.1238 10.1373 15.1064ZM5.77096 15.0962C5.75053 15.1141 5.60674 15.0871 5.57526 15.0857C5.50289 15.0845 5.43068 15.0781 5.35917 15.0665C5.23173 15.0396 5.11389 14.9769 5.01852 14.8853C4.9294 14.8083 4.85823 14.7113 4.81031 14.6018C4.7624 14.4923 4.73898 14.3729 4.7418 14.2527C4.74462 14.1325 4.7736 14.0145 4.8266 13.9075C4.87959 13.8005 4.95522 13.7073 5.04785 13.6348C5.25144 13.4696 5.50313 13.471 5.74958 13.438C5.51644 13.2437 5.21996 13.15 4.9218 13.1763C4.5714 13.1887 4.33914 13.3991 4.14917 13.6504C4.07117 13.7522 4.01386 13.8692 3.98071 13.9945C3.94756 14.1198 3.93924 14.2508 3.95627 14.3795C3.99995 14.6466 4.11577 14.8954 4.29033 15.0972C4.81543 15.4922 5.28075 15.5253 5.77096 15.0962ZM28.1067 15.0896C28.1041 15.1232 28.0968 15.1468 28.1027 15.1511C28.315 15.3265 28.5812 15.4168 28.8525 15.4054C28.9407 15.3931 29.0275 15.3714 29.1113 15.3405C29.1837 15.3222 29.2538 15.2951 29.3201 15.2598C29.556 15.1153 29.7317 14.8853 29.8131 14.6143C29.8949 14.3512 29.8744 14.0655 29.7561 13.8178C29.6785 13.6703 29.5784 13.5368 29.4597 13.4223C29.3766 13.3351 29.2749 13.2692 29.1627 13.2299C28.9576 13.1437 28.7374 13.1897 28.5235 13.1825C28.5131 13.1822 28.5033 13.207 28.4912 13.2096C28.3348 13.2542 28.1887 13.3307 28.0614 13.4348C28.0665 13.4401 28.0716 13.4499 28.0769 13.4501C28.135 13.4522 28.1932 13.4528 28.2513 13.4539L28.5939 13.5305C28.6872 13.5691 28.7721 13.6268 28.8435 13.7001C28.9148 13.7735 28.9713 13.8609 29.0093 13.9572C29.0718 14.1403 29.0798 14.3385 29.0323 14.5263C28.9941 14.6669 28.9152 14.792 28.8063 14.8848C28.7476 14.9522 28.6754 15.0055 28.5947 15.0409C28.5141 15.0763 28.4269 15.0929 28.3394 15.0897C28.261 15.0893 28.1827 15.0896 28.1067 15.0896ZM23.6619 15.0896C23.6197 15.0896 23.5851 15.0864 23.5511 15.0901C23.4166 15.1047 23.2807 15.0832 23.1565 15.0277C23.0324 14.9721 22.9241 14.8843 22.8422 14.7728C22.7629 14.6743 22.7125 14.5544 22.6968 14.4271C22.6649 14.2247 22.7068 14.0172 22.8143 13.8449C22.8649 13.7508 22.9363 13.6704 23.0225 13.6101C23.1087 13.5499 23.2074 13.5115 23.3106 13.498C23.3712 13.4912 23.4296 13.4622 23.4903 13.4556C23.5609 13.4512 23.6317 13.4506 23.7023 13.4539C23.6852 13.4204 23.6632 13.4193 23.6496 13.4077C23.5474 13.319 23.4285 13.2533 23.3006 13.2146C23.1726 13.1758 23.0382 13.165 22.906 13.1827C22.8288 13.184 22.752 13.1928 22.6765 13.2091C22.4837 13.2766 22.3114 13.3954 22.1768 13.5535C22.0135 13.7306 21.9167 13.9622 21.9038 14.2066C21.8855 14.4671 21.96 14.7254 22.1133 14.9327C22.2387 15.1224 22.4224 15.2626 22.6344 15.3305C22.848 15.4205 23.086 15.4266 23.3036 15.3477C23.4227 15.2964 23.5378 15.2359 23.648 15.1665C23.6588 15.1602 23.6556 15.128 23.6619 15.0896ZM9.16058 14.0973H6.72362C6.72672 14.236 6.71932 14.3681 6.72827 14.4926H9.13435L9.16058 14.0973ZM27.0858 14.098H24.6702C24.6738 14.2375 24.6647 14.3692 24.6756 14.4909H27.0858L27.0858 14.098ZM9.53557 15.3964L9.34007 15.0971H6.53054L6.3562 15.3964H9.53557ZM27.4659 15.397C27.3976 15.2804 27.3416 15.1847 27.2859 15.0897C26.3472 15.0897 25.4095 15.0897 24.4728 15.0898L24.2978 15.397H27.4659ZM24.463 13.4538H27.2987L27.4547 13.2053C27.2479 13.1715 24.4905 13.1731 24.3063 13.2073C24.3578 13.2884 24.4067 13.3653 24.463 13.4538ZM6.52453 13.4475H9.35817C9.37302 13.4145 9.38972 13.3824 9.4082 13.3514C9.42838 13.3213 9.45713 13.2972 9.47699 13.267C9.49367 13.2415 9.5403 13.2336 9.52991 13.1921H6.37031L6.52453 13.4475ZM3.51719 10.2211H5.35004V9.86424H5.12034C4.64506 9.86424 4.16978 9.86432 3.6945 9.86446C3.63076 9.86452 3.5599 9.84563 3.51719 9.93915L3.51719 10.2211ZM1.58552 9.92445V10.2168H2.9344V9.86835H1.63982L1.58552 9.92445ZM7.20431 1.64708H6.50844V2.20834L6.5626 2.26886H7.14914L7.20431 2.21187L7.20431 1.64708ZM15.3086 1.64361V2.21506L15.364 2.27233H15.9636C16.0527 2.06763 15.9832 1.85395 16.0075 1.64361H15.3086ZM24.7992 1.64689H24.1033V2.21061L24.1577 2.26905H24.7437L24.7992 2.21169L24.7992 1.64689ZM5.92862 1.64728H5.28371V2.26875H5.92862L5.92862 1.64728ZM7.78711 1.64393V2.26472H8.43262V1.64393H7.78711ZM9.06319 1.64379V2.27608C9.17941 2.27608 9.2882 2.27796 9.39689 2.27555C9.50054 2.28119 9.60445 2.2789 9.70777 2.26868V1.64379H9.06319ZM10.2872 2.26973C10.5044 2.28126 10.7221 2.28061 10.9393 2.26779V1.63995C10.8228 1.63995 10.714 1.63801 10.6053 1.6405C10.4992 1.63454 10.3928 1.63738 10.2872 1.64898V2.26973ZM12.219 1.64752H11.5628C11.5628 1.75963 11.5609 1.86441 11.5634 1.96906C11.5577 2.06892 11.5602 2.1691 11.571 2.26851H12.219V1.64752ZM14.7261 1.64786H14.0701C14.0701 1.76043 14.068 1.86528 14.0707 1.97001C14.0646 2.06945 14.0673 2.16925 14.0787 2.26817H14.7261V1.64786ZM16.5811 2.26822H17.2371C17.2371 2.15572 17.2392 2.05088 17.2365 1.94616C17.2426 1.84667 17.2399 1.74681 17.2285 1.64781H16.5811V2.26822ZM19.0883 2.26822H19.7444C19.7444 2.15572 19.7464 2.05088 19.7438 1.94616C19.7498 1.84667 19.7471 1.74681 19.7358 1.64781H19.0883L19.0883 2.26822ZM21.0127 2.2723V1.63995C20.8968 1.63995 20.7881 1.63819 20.6795 1.64045C20.5755 1.63513 20.4712 1.63734 20.3675 1.64707V2.2723L21.0127 2.2723ZM22.8748 1.64364V2.27608C22.9908 2.27608 23.0996 2.27789 23.2082 2.27557C23.3121 2.281 23.4162 2.27876 23.5198 2.26887V1.64364H22.8748ZM26.0269 2.27225V1.63995C25.9106 1.63995 25.8019 1.63807 25.6932 1.64049C25.5895 1.63485 25.4856 1.63714 25.3823 1.64735V2.27225H26.0269ZM27.8855 2.26846H28.5417C28.5417 2.15629 28.5437 2.05151 28.5412 1.94684C28.5469 1.84704 28.5444 1.74691 28.5334 1.64757H27.8855V2.26846ZM13.4508 1.64707H12.7986V2.20711L12.8517 2.26826H13.4508V1.64707ZM17.8571 2.27608C18.0416 2.27608 18.2224 2.27902 18.4029 2.27368C18.4405 2.26481 18.4762 2.24852 18.5079 2.22569V1.64858H17.8571V2.27608ZM22.2444 2.27228V1.65104H21.5984V2.21479L21.6541 2.27228H22.2444ZM26.6537 2.26889H27.2511L27.3101 2.20793C27.3101 2.11655 27.3121 2.01928 27.3095 1.92215C27.3161 1.83062 27.3131 1.73863 27.3007 1.64777H26.6537L26.6537 2.26889ZM4.69669 1.64214C4.51622 1.64044 4.34102 1.70518 4.20235 1.82482C4.05318 1.9283 3.94729 2.08637 3.90594 2.26732H4.6434L4.6967 2.21226L4.69669 1.64214ZM29.899 2.27534C29.854 1.95542 29.5038 1.65812 29.1678 1.65219V2.27534H29.899ZM9.7667 14.0842V14.5035C9.7667 14.5035 9.98904 14.4996 10.0201 14.4997C10.0893 14.5 10.1585 14.4997 10.2278 14.4991C10.2826 14.5026 10.3374 14.4925 10.3876 14.4695C10.4378 14.4465 10.4819 14.4114 10.5162 14.367C10.5339 14.3451 10.545 14.3183 10.5481 14.2899C10.5468 14.2565 10.537 14.2241 10.5195 14.196C10.5106 14.1762 10.4989 14.158 10.4848 14.1419C10.416 14.0711 10.2385 14.0831 10.1498 14.0849C10.0222 14.0948 9.89418 14.0945 9.7667 14.0842ZM5.36197 14.4388C5.37194 14.5123 5.51076 14.491 5.5819 14.4954C5.75464 14.5062 5.92843 14.4989 6.09035 14.4989C6.11157 14.4061 6.09044 14.3305 6.10418 14.2704C6.08661 14.2065 6.11031 14.153 6.09428 14.0948H5.48013C5.3972 14.1141 5.37397 14.1447 5.36197 14.199V14.4388ZM24.0551 14.1127C24.0435 14.1051 24.032 14.091 24.0203 14.091C23.8378 14.0896 23.6552 14.09 23.4726 14.09C23.458 14.09 23.4409 14.0849 23.4292 14.0909C23.3874 14.1126 23.3475 14.138 23.3186 14.1551L23.2795 14.2967C23.3194 14.474 23.4498 14.5033 23.6015 14.4996C23.7323 14.4964 23.8631 14.4989 23.9863 14.4989L24.0551 14.4319C24.0551 14.324 24.0551 14.2183 24.0551 14.1127ZM28.4365 14.1382C28.1969 14.0406 27.9534 14.1142 27.7096 14.0859V14.4219L27.7675 14.4979H28.3197C28.3763 14.4391 28.4415 14.3714 28.4909 14.32L28.4365 14.1382Z" fill="#6B1E74"/>
<path d="M30.0754 13.1907C30.3232 13.5024 30.4529 13.8969 30.4401 14.3005C30.4472 14.7169 30.2918 15.0592 30.0776 15.4032H32.8001L33 15.6818C32.9592 15.7718 32.9248 15.8479 32.8837 15.9386C32.8034 16.0161 32.6874 15.9982 32.5757 15.9982C22.1077 15.9984 11.6337 15.9985 1.15369 15.9984L1.00974 15.8022C0.992044 15.6294 1.01043 15.4779 1.25633 15.4052C2.03952 15.4052 2.88043 15.4052 3.74815 15.4052C3.65878 15.2625 3.57688 15.1149 3.50279 14.963C3.43896 14.8026 3.39841 14.6333 3.38247 14.4605C3.35908 14.2343 3.37913 14.0055 3.44147 13.7873C3.5038 13.5691 3.60719 13.3659 3.74569 13.1892C3.67806 13.1862 3.62253 13.1817 3.56699 13.1816C3.2078 13.1809 2.84818 13.1704 2.48957 13.1854C2.28953 13.1812 2.08999 13.163 1.89231 13.1309C1.74234 13.1069 1.60299 13.0361 1.49281 12.928C1.32531 12.8011 1.19113 12.6328 1.10248 12.4385C1.04568 12.3083 1.01299 12.1681 1.00611 12.0254C1.00595 9.49623 1.00591 6.96706 1.006 4.43789C1.006 4.40003 0.990889 4.35008 1.00863 4.32642C1.08212 4.22844 1.02973 4.11182 1.06454 4.00869C1.12542 3.82288 1.19879 3.64173 1.28413 3.46655C1.31995 3.39023 1.36192 3.31717 1.4096 3.24816C1.45803 3.19138 1.50926 3.13723 1.56308 3.08591C1.75288 2.85682 1.98275 2.66691 2.2406 2.52617C2.43911 2.43221 2.64706 2.36133 2.86064 2.31484C2.99954 2.29067 3.13993 2.2768 3.28074 2.27333C3.31545 2.00815 3.42926 1.76081 3.60626 1.56585C3.79515 1.32997 4.05064 1.16127 4.33684 1.08344C4.3558 1.07842 4.37082 1.05253 4.38911 1.05057C4.55074 1.027 4.71344 1.01203 4.87656 1.00571C12.9035 1.00355 20.9304 1.00165 28.9573 1C29.0883 0.99993 29.207 1.05846 29.3348 1.04811C29.4659 1.03749 29.5711 1.12085 29.6931 1.14635C29.786 1.17281 29.8709 1.22345 29.9396 1.29344C30.202 1.53906 30.449 1.79843 30.5226 2.1788C30.5365 2.21494 30.5555 2.24874 30.579 2.27907C30.8012 2.24512 31.0121 2.31989 31.2191 2.37504C31.4215 2.43703 31.6137 2.53005 31.7894 2.65102C31.9348 2.74406 32.0297 2.89976 32.187 2.9746C32.3095 3.16842 32.4872 3.32559 32.5822 3.53284C32.6678 3.72502 32.7312 3.92699 32.7711 4.13456C32.8098 4.39937 32.8216 4.66764 32.8065 4.935C32.8098 7.28993 32.8106 9.64487 32.8089 11.9998C32.8093 12.1368 32.7832 12.2724 32.7322 12.3987C32.6812 12.5251 32.6062 12.6396 32.5118 12.7354C32.3944 12.861 32.289 13.0041 32.1145 13.0596C32.0243 13.0931 31.9319 13.1197 31.8379 13.1391C31.2594 13.2318 30.6774 13.1488 30.0754 13.1907ZM5.93686 9.27355H31.971C32.0222 9.2772 32.0735 9.27649 32.1246 9.27144C32.1621 9.26038 32.198 9.2444 32.2316 9.22388V4.96503H5.93686V9.27355ZM32.1734 4.31624C32.178 4.30883 32.1937 4.29447 32.1913 4.28522C32.1698 4.20389 32.1493 4.12184 32.1203 4.04322C32.0883 3.95843 32.0522 3.87537 32.0121 3.79433C31.9015 3.57812 31.7469 3.38939 31.5589 3.24124C31.2373 3.00262 30.8528 2.87192 30.4572 2.86678C21.538 2.86678 12.6188 2.86734 3.69958 2.86845C3.47729 2.85357 3.25409 2.86585 3.03458 2.90504C2.89467 2.93747 2.7575 2.98149 2.6244 3.03667C2.35288 3.15292 2.11741 3.34416 1.94367 3.58953C1.7982 3.81265 1.68706 4.0578 1.61423 4.31624L32.1734 4.31624ZM12.1185 13.1896C12.1501 13.1896 12.2204 13.3037 12.2378 13.3294C12.2705 13.379 12.2985 13.4317 12.3216 13.4867C12.4416 13.74 12.5029 14.0187 12.5007 14.3008C12.4984 14.5829 12.4327 14.8606 12.3087 15.1118C12.2582 15.2085 12.1949 15.2981 12.1328 15.3979H21.6833C21.4634 15.0552 21.3141 14.7091 21.3211 14.2905C21.3106 13.8904 21.4394 13.4996 21.6839 13.1896H12.1185ZM32.177 9.87085H5.94344V10.2218H32.2313V9.92694L32.177 9.87085ZM3.52072 4.96137V9.21311L3.57425 9.26841H5.35256V4.96137H3.52072ZM1.58532 4.96152V9.21314L1.63869 9.26827H2.93327V4.96152H1.58532ZM12.8307 12.5414V10.871C12.0597 10.8401 9.64136 10.8523 9.45917 10.8862V12.5414H12.8307ZM16.7899 12.5413V10.8717C16.1247 10.8423 13.5992 10.8537 13.4176 10.8854V12.5414L16.7899 12.5413ZM21.3758 12.5378H24.7506C24.776 11.9824 24.7716 11.426 24.7376 10.8712H21.3758L21.3758 12.5378ZM28.7101 12.5415V10.8713C27.9813 10.8409 25.5202 10.8528 25.3383 10.8859V12.5415L28.7101 12.5415ZM17.4204 10.8677V12.5372C18.0766 12.5665 20.5674 12.5551 20.7487 12.5236V10.8677H17.4204ZM8.87556 10.871H5.94351V12.5379H8.87556V10.871ZM29.293 12.5451C30.0807 12.5451 30.8492 12.5379 31.6174 12.5492C31.7714 12.5451 31.9187 12.4831 32.0318 12.3747C32.1448 12.2663 32.2158 12.1189 32.2315 11.9602C32.2551 11.6004 32.2366 11.2376 32.2366 10.8719H29.293L29.293 12.5451ZM3.53524 10.8639C3.50422 11.4212 3.50438 11.9798 3.53571 12.5371H5.36069C5.36069 12.2501 5.36245 11.9711 5.36019 11.6921C5.35795 11.4159 5.37041 11.1392 5.35246 10.8639L3.53524 10.8639ZM2.94142 10.8708H1.57783C1.57783 11.2163 1.56569 11.5556 1.58266 11.8933C1.57887 11.9875 1.59657 12.0813 1.63433 12.1671C1.67208 12.2529 1.72882 12.3282 1.79995 12.3871C1.87818 12.4441 1.96172 12.4933 2.02828 12.5366H2.94142V10.8708ZM10.1373 15.1064C10.236 15.2066 10.3532 15.285 10.482 15.3368C10.6108 15.3886 10.7484 15.4127 10.8865 15.4077C11.0246 15.4027 11.1602 15.3687 11.2852 15.3077C11.4102 15.2467 11.5219 15.1601 11.6135 15.053C12.0373 14.5941 12.0609 13.8804 11.4708 13.3805C11.3499 13.2746 11.2019 13.2074 11.0447 13.1871C10.8801 13.1657 10.7131 13.1739 10.5512 13.2113C10.2898 13.2785 10.2772 13.3048 10.1603 13.4579C10.3789 13.424 10.6019 13.4737 10.7878 13.5975C10.8844 13.6587 10.9652 13.7431 11.0236 13.8436C11.0819 13.944 11.116 14.0576 11.1229 14.1746C11.1412 14.3275 11.1227 14.4826 11.069 14.6263C10.9855 14.8064 10.8425 14.9498 10.666 15.0304C10.6011 15.0515 10.5344 15.0663 10.4668 15.0746C10.4172 15.0818 10.3673 15.0872 10.3174 15.092C10.2896 15.0947 10.1549 15.1238 10.1373 15.1064ZM5.77096 15.0962C5.75053 15.1141 5.60674 15.0871 5.57526 15.0857C5.50289 15.0845 5.43068 15.0781 5.35917 15.0665C5.23173 15.0396 5.11389 14.9769 5.01852 14.8853C4.9294 14.8083 4.85823 14.7113 4.81031 14.6018C4.7624 14.4923 4.73898 14.3729 4.7418 14.2527C4.74462 14.1325 4.7736 14.0145 4.8266 13.9075C4.87959 13.8005 4.95522 13.7073 5.04785 13.6348C5.25144 13.4696 5.50313 13.471 5.74958 13.438C5.51644 13.2437 5.21996 13.15 4.9218 13.1763C4.5714 13.1887 4.33914 13.3991 4.14917 13.6504C4.07117 13.7522 4.01386 13.8692 3.98071 13.9945C3.94756 14.1198 3.93924 14.2508 3.95627 14.3795C3.99995 14.6466 4.11577 14.8954 4.29033 15.0972C4.81543 15.4922 5.28075 15.5253 5.77096 15.0962ZM28.1067 15.0896C28.1041 15.1232 28.0968 15.1468 28.1027 15.1511C28.315 15.3265 28.5812 15.4168 28.8525 15.4054C28.9407 15.3931 29.0275 15.3714 29.1113 15.3405C29.1837 15.3222 29.2538 15.2951 29.3201 15.2598C29.556 15.1153 29.7317 14.8853 29.8131 14.6143C29.8949 14.3512 29.8744 14.0655 29.7561 13.8178C29.6785 13.6703 29.5784 13.5368 29.4597 13.4223C29.3766 13.3351 29.2749 13.2692 29.1627 13.2299C28.9576 13.1437 28.7374 13.1897 28.5235 13.1825C28.5131 13.1822 28.5033 13.207 28.4912 13.2096C28.3348 13.2542 28.1887 13.3307 28.0614 13.4348C28.0665 13.4401 28.0716 13.4499 28.0769 13.4501C28.135 13.4522 28.1932 13.4528 28.2513 13.4539L28.5939 13.5305C28.6872 13.5691 28.7721 13.6268 28.8435 13.7001C28.9148 13.7735 28.9713 13.8609 29.0093 13.9572C29.0718 14.1403 29.0798 14.3385 29.0323 14.5263C28.9941 14.6669 28.9152 14.792 28.8063 14.8848C28.7476 14.9522 28.6754 15.0055 28.5947 15.0409C28.5141 15.0763 28.4269 15.0929 28.3394 15.0897C28.261 15.0893 28.1827 15.0896 28.1067 15.0896ZM23.6619 15.0896C23.6197 15.0896 23.5851 15.0864 23.5511 15.0901C23.4166 15.1047 23.2807 15.0832 23.1565 15.0277C23.0324 14.9721 22.9241 14.8843 22.8422 14.7728C22.7629 14.6743 22.7125 14.5544 22.6968 14.4271C22.6649 14.2247 22.7068 14.0172 22.8143 13.8449C22.8649 13.7508 22.9363 13.6704 23.0225 13.6101C23.1087 13.5499 23.2074 13.5115 23.3106 13.498C23.3712 13.4912 23.4296 13.4622 23.4903 13.4556C23.5609 13.4512 23.6317 13.4506 23.7023 13.4539C23.6852 13.4204 23.6632 13.4193 23.6496 13.4077C23.5474 13.319 23.4285 13.2533 23.3006 13.2146C23.1726 13.1758 23.0382 13.165 22.906 13.1827C22.8288 13.184 22.752 13.1928 22.6765 13.2091C22.4837 13.2766 22.3114 13.3954 22.1768 13.5535C22.0135 13.7306 21.9167 13.9622 21.9038 14.2066C21.8855 14.4671 21.96 14.7254 22.1133 14.9327C22.2387 15.1224 22.4224 15.2626 22.6344 15.3305C22.848 15.4205 23.086 15.4266 23.3036 15.3477C23.4227 15.2964 23.5378 15.2359 23.648 15.1665C23.6588 15.1602 23.6556 15.128 23.6619 15.0896ZM9.16058 14.0973H6.72362C6.72672 14.236 6.71932 14.3681 6.72827 14.4926H9.13435L9.16058 14.0973ZM27.0858 14.098H24.6702C24.6738 14.2375 24.6647 14.3692 24.6756 14.4909H27.0858L27.0858 14.098ZM9.53557 15.3964L9.34007 15.0971H6.53054L6.3562 15.3964H9.53557ZM27.4659 15.397C27.3976 15.2804 27.3416 15.1847 27.2859 15.0897C26.3472 15.0897 25.4095 15.0897 24.4728 15.0898L24.2978 15.397H27.4659ZM24.463 13.4538H27.2987L27.4547 13.2053C27.2479 13.1715 24.4905 13.1731 24.3063 13.2073C24.3578 13.2884 24.4067 13.3653 24.463 13.4538ZM6.52453 13.4475H9.35817C9.37302 13.4145 9.38972 13.3824 9.4082 13.3514C9.42838 13.3213 9.45713 13.2972 9.47699 13.267C9.49367 13.2415 9.5403 13.2336 9.52991 13.1921H6.37031L6.52453 13.4475ZM3.51719 10.2211H5.35004V9.86424H5.12034C4.64506 9.86424 4.16978 9.86432 3.6945 9.86446C3.63076 9.86452 3.5599 9.84563 3.51719 9.93915L3.51719 10.2211ZM1.58552 9.92445V10.2168H2.9344V9.86835H1.63982L1.58552 9.92445ZM7.20431 1.64708H6.50844V2.20834L6.5626 2.26886H7.14914L7.20431 2.21187L7.20431 1.64708ZM15.3086 1.64361V2.21506L15.364 2.27233H15.9636C16.0527 2.06763 15.9832 1.85395 16.0075 1.64361H15.3086ZM24.7992 1.64689H24.1033V2.21061L24.1577 2.26905H24.7437L24.7992 2.21169L24.7992 1.64689ZM5.92862 1.64728H5.28371V2.26875H5.92862L5.92862 1.64728ZM7.78711 1.64393V2.26472H8.43262V1.64393H7.78711ZM9.06319 1.64379V2.27608C9.17941 2.27608 9.2882 2.27796 9.39689 2.27555C9.50054 2.28119 9.60445 2.2789 9.70777 2.26868V1.64379H9.06319ZM10.2872 2.26973C10.5044 2.28126 10.7221 2.28061 10.9393 2.26779V1.63995C10.8228 1.63995 10.714 1.63801 10.6053 1.6405C10.4992 1.63454 10.3928 1.63738 10.2872 1.64898V2.26973ZM12.219 1.64752H11.5628C11.5628 1.75963 11.5609 1.86441 11.5634 1.96906C11.5577 2.06892 11.5602 2.1691 11.571 2.26851H12.219V1.64752ZM14.7261 1.64786H14.0701C14.0701 1.76043 14.068 1.86528 14.0707 1.97001C14.0646 2.06945 14.0673 2.16925 14.0787 2.26817H14.7261V1.64786ZM16.5811 2.26822H17.2371C17.2371 2.15572 17.2392 2.05088 17.2365 1.94616C17.2426 1.84667 17.2399 1.74681 17.2285 1.64781H16.5811V2.26822ZM19.0883 2.26822H19.7444C19.7444 2.15572 19.7464 2.05088 19.7438 1.94616C19.7498 1.84667 19.7471 1.74681 19.7358 1.64781H19.0883L19.0883 2.26822ZM21.0127 2.2723V1.63995C20.8968 1.63995 20.7881 1.63819 20.6795 1.64045C20.5755 1.63513 20.4712 1.63734 20.3675 1.64707V2.2723L21.0127 2.2723ZM22.8748 1.64364V2.27608C22.9908 2.27608 23.0996 2.27789 23.2082 2.27557C23.3121 2.281 23.4162 2.27876 23.5198 2.26887V1.64364H22.8748ZM26.0269 2.27225V1.63995C25.9106 1.63995 25.8019 1.63807 25.6932 1.64049C25.5895 1.63485 25.4856 1.63714 25.3823 1.64735V2.27225H26.0269ZM27.8855 2.26846H28.5417C28.5417 2.15629 28.5437 2.05151 28.5412 1.94684C28.5469 1.84704 28.5444 1.74691 28.5334 1.64757H27.8855V2.26846ZM13.4508 1.64707H12.7986V2.20711L12.8517 2.26826H13.4508V1.64707ZM17.8571 2.27608C18.0416 2.27608 18.2224 2.27902 18.4029 2.27368C18.4405 2.26481 18.4762 2.24852 18.5079 2.22569V1.64858H17.8571V2.27608ZM22.2444 2.27228V1.65104H21.5984V2.21479L21.6541 2.27228H22.2444ZM26.6537 2.26889H27.2511L27.3101 2.20793C27.3101 2.11655 27.3121 2.01928 27.3095 1.92215C27.3161 1.83062 27.3131 1.73863 27.3007 1.64777H26.6537L26.6537 2.26889ZM4.69669 1.64214C4.51622 1.64044 4.34102 1.70518 4.20235 1.82482C4.05318 1.9283 3.94729 2.08637 3.90594 2.26732H4.6434L4.6967 2.21226L4.69669 1.64214ZM29.899 2.27534C29.854 1.95542 29.5038 1.65812 29.1678 1.65219V2.27534H29.899ZM9.7667 14.0842V14.5035C9.7667 14.5035 9.98904 14.4996 10.0201 14.4997C10.0893 14.5 10.1585 14.4997 10.2278 14.4991C10.2826 14.5026 10.3374 14.4925 10.3876 14.4695C10.4378 14.4465 10.4819 14.4114 10.5162 14.367C10.5339 14.3451 10.545 14.3183 10.5481 14.2899C10.5468 14.2565 10.537 14.2241 10.5195 14.196C10.5106 14.1762 10.4989 14.158 10.4848 14.1419C10.416 14.0711 10.2385 14.0831 10.1498 14.0849C10.0222 14.0948 9.89418 14.0945 9.7667 14.0842ZM5.36197 14.4388C5.37194 14.5123 5.51076 14.491 5.5819 14.4954C5.75464 14.5062 5.92843 14.4989 6.09035 14.4989C6.11157 14.4061 6.09044 14.3305 6.10418 14.2704C6.08661 14.2065 6.11031 14.153 6.09428 14.0948H5.48013C5.3972 14.1141 5.37397 14.1447 5.36197 14.199V14.4388ZM24.0551 14.1127C24.0435 14.1051 24.032 14.091 24.0203 14.091C23.8378 14.0896 23.6552 14.09 23.4726 14.09C23.458 14.09 23.4409 14.0849 23.4292 14.0909C23.3874 14.1126 23.3475 14.138 23.3186 14.1551L23.2795 14.2967C23.3194 14.474 23.4498 14.5033 23.6015 14.4996C23.7323 14.4964 23.8631 14.4989 23.9863 14.4989L24.0551 14.4319C24.0551 14.324 24.0551 14.2183 24.0551 14.1127ZM28.4365 14.1382C28.1969 14.0406 27.9534 14.1142 27.7096 14.0859V14.4219L27.7675 14.4979H28.3197C28.3763 14.4391 28.4415 14.3714 28.4909 14.32L28.4365 14.1382Z" stroke="#6B1E74" stroke-width="0.2" mask="url(#path-1-outside-1_10009_751)"/>
<path d="M27.0835 8.55114V8.50114C27.0835 8.34481 27.0836 8.19056 27.0838 8.03777C27.0841 7.67962 27.0844 7.32946 27.0828 6.97924L27.0835 8.55114ZM27.0835 8.55114H27.1335M27.0835 8.55114H27.1335M27.1335 8.55114H31.4283H31.4605L31.4739 8.52179C31.4827 8.5023 31.4891 8.48175 31.4928 8.46065L31.4936 8.46079L31.4936 8.45191C31.4938 8.34391 31.494 8.23587 31.4942 8.12781C31.4951 7.73605 31.496 7.34391 31.4919 6.9519L31.4919 6.95107C31.4887 6.83166 31.4714 6.71309 31.4404 6.598M27.1335 8.55114L31.392 6.61076M28.4162 5.63475L28.4162 5.63478C28.599 5.63421 28.7815 5.63463 28.9638 5.63505C29.3091 5.63584 29.6538 5.63663 29.9989 5.6307L29.9995 5.63069C30.1741 5.62979 30.3483 5.64802 30.5192 5.68509L30.5213 5.68555L30.5213 5.68559C30.6319 5.71463 30.7371 5.76202 30.8329 5.82588C31.0336 5.95414 31.2026 6.12891 31.3267 6.33624M28.4162 5.63475L31.2841 6.36252M28.4162 5.63475L28.4144 5.63482M28.4162 5.63475L28.4144 5.63482M31.3267 6.33624C31.3268 6.33645 31.3269 6.33666 31.327 6.33687L31.2841 6.36252M31.3267 6.33624C31.3265 6.33603 31.3264 6.33582 31.3263 6.3356L31.2841 6.36252M31.3267 6.33624C31.3779 6.41666 31.4163 6.50504 31.4404 6.598M31.2841 6.36252C31.3328 6.4387 31.3692 6.52253 31.392 6.61076M31.4404 6.598C31.4403 6.59791 31.4403 6.59783 31.4403 6.59775L31.392 6.61076M31.4404 6.598C31.4404 6.59808 31.4404 6.59816 31.4404 6.59824L31.392 6.61076M28.4144 5.63482C28.3209 5.63842 28.228 5.65105 28.1368 5.67256C27.8316 5.72934 27.5584 5.90225 27.3707 6.15672M28.4144 5.63482L27.3707 6.15672M27.3707 6.15672C27.1832 6.38697 27.0813 6.67857 27.0828 6.97921L27.3707 6.15672ZM27.7595 6.98289L27.7595 6.98289L27.7595 6.98207C27.7619 6.8776 27.7915 6.77585 27.845 6.6876C27.9218 6.57169 28.0247 6.47723 28.1446 6.41235C28.1621 6.4032 28.1791 6.39633 28.2029 6.38675C28.2145 6.38205 28.2278 6.3767 28.2435 6.37011H30.3508C30.3986 6.4011 30.4385 6.42611 30.4711 6.44659C30.4901 6.4585 30.5066 6.46888 30.5209 6.47802C30.5631 6.5051 30.5874 6.52261 30.6074 6.54241C30.6271 6.56197 30.6445 6.58562 30.6701 6.6273C30.6859 6.65298 30.7039 6.68389 30.7268 6.72337C30.7399 6.74601 30.7547 6.77146 30.7716 6.80037V7.85605H27.7552C27.755 7.78459 27.7545 7.71337 27.754 7.64234C27.7524 7.4214 27.7509 7.20221 27.7595 6.98289Z" fill="#6B1E74" stroke="#6B1E74" stroke-width="0.1"/>
<path d="M26.3922 8.54642H26.3422H22.0315H21.9815V8.49642V7.74732C21.9815 7.66624 21.9815 7.58512 21.9814 7.50396C21.9812 7.32027 21.9811 7.13644 21.9818 6.95268C21.9818 6.95245 21.9818 6.95221 21.9818 6.95198L22.0318 6.95217C22.0282 6.80784 22.0527 6.66425 22.1037 6.52991C22.1548 6.39557 22.2314 6.27323 22.329 6.17015C22.3428 6.1555 22.3531 6.13437 22.363 6.11392C22.3766 6.08603 22.3895 6.0594 22.4101 6.0522L26.3922 8.54642ZM26.3922 8.54642V8.49642C26.3922 8.35529 26.3917 8.21567 26.3912 8.07714C26.3899 7.71426 26.3886 7.35884 26.3966 7.00337C26.3983 6.92897 26.3854 6.85983 26.3721 6.79583C26.3704 6.78788 26.3687 6.78003 26.3671 6.77227C26.3553 6.71607 26.3443 6.66415 26.3409 6.61024L26.3411 6.61022L26.3405 6.60586C26.3268 6.51562 26.2935 6.42968 26.243 6.35449C26.1371 6.17945 26.0013 6.02579 25.842 5.90109C25.75 5.81437 25.6387 5.75221 25.5178 5.72022C25.3609 5.67546 25.2002 5.64649 25.0379 5.63375L25.0379 5.63359L25.0339 5.63359C24.4474 5.63467 23.861 5.6347 23.2746 5.63369L23.2746 5.63363L23.2721 5.63375C23.0939 5.64243 22.9188 5.68447 22.7552 5.75779L26.3922 8.54642ZM23.1326 6.32377C23.1115 6.33277 23.0939 6.33996 23.0786 6.34621C23.0511 6.35741 23.0311 6.36559 23.012 6.37573C22.8894 6.43904 22.7863 6.53643 22.7142 6.65699C22.6421 6.77756 22.6039 6.91653 22.6037 7.05835C22.6026 7.24161 22.6029 7.42488 22.6031 7.60585C22.6033 7.6852 22.6034 7.7641 22.6034 7.84237M23.1326 6.32377V6.37377H23.1428M23.1326 6.32377H25.256M23.1326 6.32377L23.1522 6.36975C23.149 6.37114 23.1458 6.37248 23.1428 6.37377M23.1428 6.37377C23.1233 6.38203 23.1075 6.38844 23.0942 6.39387C23.069 6.40412 23.0524 6.41087 23.0355 6.41988L23.0349 6.42016L23.0349 6.42016C22.9208 6.47911 22.8246 6.56993 22.7571 6.68266C22.6897 6.7954 22.6539 6.92551 22.6537 7.0584L22.6537 7.05867C22.6526 7.24172 22.6529 7.42467 22.6531 7.60554C22.6532 7.67811 22.6534 7.75035 22.6534 7.82213M23.1428 6.37377H25.245M22.6534 7.82213L22.6393 7.8076L22.6034 7.84237M22.6534 7.82213C22.6534 7.82888 22.6534 7.83563 22.6534 7.84237H22.6034M22.6534 7.82213L22.6835 7.85326M22.6034 7.84237L22.6623 7.90326M22.6623 7.90326V7.85326H22.6835M22.6623 7.90326H25.7115M22.6623 7.90326L22.6982 7.86848L22.6835 7.85326M22.6835 7.85326H25.6903M25.7115 7.90326L25.6756 7.86848L25.6903 7.85326M25.7115 7.90326L25.7734 7.83933M25.7115 7.90326V7.85326H25.6903M25.6903 7.85326L25.7216 7.82089M25.7734 7.83933L25.7236 7.84388C25.7229 7.83622 25.7222 7.82856 25.7216 7.82089M25.7734 7.83933C25.7624 7.71929 25.765 7.5978 25.7676 7.47536C25.7716 7.29019 25.7756 7.10286 25.7328 6.91506C25.7047 6.77584 25.6459 6.64521 25.5612 6.53331M25.7734 7.83933L25.7374 7.80456L25.7216 7.82089M25.7216 7.82089C25.7127 7.70519 25.7152 7.588 25.7177 7.4729C25.7183 7.44189 25.719 7.41102 25.7194 7.38038C25.7216 7.22677 25.7182 7.07606 25.6841 6.92617L25.6838 6.92497L25.6838 6.92496C25.6574 6.79425 25.6025 6.67164 25.5235 6.56644M25.5235 6.56644C25.5244 6.5673 25.5253 6.56817 25.5262 6.56903L25.5612 6.53331M25.5235 6.56644C25.4415 6.48669 25.3474 6.42161 25.245 6.37377M25.5235 6.56644C25.5228 6.56546 25.5221 6.56448 25.5213 6.5635L25.5612 6.53331M25.5612 6.53331C25.4718 6.44582 25.3686 6.37494 25.256 6.32377M25.256 6.32377V6.37377H25.245M25.256 6.32377L25.2353 6.36929C25.2385 6.37077 25.2418 6.37226 25.245 6.37377" fill="#6B1E74" stroke="#6B1E74" stroke-width="0.1"/>
<path d="M11.0851 8.54657H11.0351H6.72435H6.67435V8.49657V8.33839C6.67435 8.20406 6.67417 8.06967 6.67399 7.93525C6.67358 7.6231 6.67316 7.31074 6.67499 6.9985C6.6704 6.82558 6.70147 6.65358 6.76619 6.49398C6.83086 6.33452 6.92765 6.19103 7.05022 6.07314C7.12119 5.99774 7.19786 5.92828 7.27951 5.86545L7.28217 5.86341L7.28223 5.86351C7.42664 5.76701 7.58848 5.70165 7.75805 5.67142C7.89348 5.6451 8.03114 5.63297 8.16893 5.63522M11.0851 8.54657L8.16866 5.68522M11.0851 8.54657V8.49657M11.0851 8.54657V8.49657M8.16893 5.63522C8.16912 5.63522 8.16931 5.63523 8.16949 5.63523L8.16866 5.68522M8.16893 5.63522C8.16875 5.63522 8.16857 5.63522 8.16839 5.63522L8.16866 5.68522M8.16893 5.63522C8.42551 5.63382 8.68207 5.63399 8.93845 5.63416L8.93947 5.63416C9.19574 5.63433 9.45184 5.63449 9.7079 5.63311L9.70944 5.6331L9.70944 5.63312C9.88824 5.63765 10.0654 5.66969 10.235 5.72818M8.16866 5.68522C8.4256 5.68382 8.68256 5.68399 8.93951 5.68416C9.19573 5.68433 9.45196 5.68449 9.70817 5.68311C9.8827 5.68752 10.0556 5.71894 10.2212 5.7763M10.235 5.72818C10.2341 5.72797 10.2332 5.72776 10.2323 5.72756L10.2212 5.7763M10.235 5.72818C10.2359 5.72847 10.2367 5.72876 10.2375 5.72906L10.2212 5.7763M10.235 5.72818C10.3594 5.75719 10.4726 5.82352 10.5605 5.91861L10.5627 5.92098L10.5626 5.92104C10.5902 5.95508 10.6224 5.98456 10.6581 6.01634C10.6606 6.01861 10.6632 6.02089 10.6658 6.02319C10.6985 6.05226 10.7339 6.08374 10.766 6.12019C10.9771 6.3527 11.0915 6.66124 11.0854 6.97963M10.2212 5.7763C10.3367 5.80269 10.442 5.86404 10.5237 5.95254L11.0854 6.98006C11.0854 6.97992 11.0854 6.97977 11.0854 6.97963M11.0854 6.97963C11.0845 7.32974 11.0847 7.67982 11.0849 8.03619M11.0854 6.97963L11.0849 8.03619M11.0851 8.49657C11.0851 8.34163 11.085 8.18834 11.0849 8.03619M11.0851 8.49657L11.0849 8.03619M10.4093 7.02454L10.4093 7.02454L10.4093 7.02563C10.4205 7.23983 10.4168 7.45497 10.413 7.67187C10.4125 7.70353 10.4119 7.73524 10.4114 7.76698C10.4068 7.79786 10.3992 7.82814 10.3887 7.85738L7.38027 7.85739L7.34454 7.82048C7.34732 7.7418 7.3471 7.66239 7.34651 7.58256C7.34642 7.5707 7.34632 7.55884 7.34622 7.54696C7.34561 7.47126 7.34499 7.39512 7.34648 7.3175C7.34988 7.14047 7.36425 6.95794 7.41411 6.76545C7.46154 6.68874 7.51332 6.61501 7.56918 6.54467C7.61984 6.4851 7.68273 6.43832 7.75308 6.4077C7.82366 6.37698 7.89997 6.36328 7.97628 6.36758L7.97628 6.36763L7.9785 6.36766C8.58629 6.37489 9.19399 6.37453 9.80162 6.36657L9.80162 6.36658L9.80245 6.36656C9.90277 6.36357 10.0015 6.39453 10.0836 6.45503L10.0836 6.45506L10.0851 6.45611C10.1805 6.52103 10.2625 6.60521 10.326 6.70374C10.3773 6.80247 10.4058 6.91229 10.4093 7.02454Z" fill="#6B1E74" stroke="#6B1E74" stroke-width="0.1"/>
<path d="M16.1377 8.54699H16.1877V8.49699C16.1877 8.35898 16.1876 8.22222 16.1875 8.0864C16.1873 7.69726 16.187 7.31581 16.1888 6.93431V6.93402C16.1887 6.83512 16.1735 6.73684 16.1437 6.64281C16.0595 6.33507 15.8752 6.06653 15.6214 5.88291C15.5305 5.80861 15.4263 5.75339 15.3147 5.72046L15.3147 5.72046L15.3144 5.72037C15.1574 5.67513 14.9964 5.64611 14.8339 5.63374L14.8339 5.63358L14.8299 5.63359C14.6255 5.63411 14.4209 5.63396 14.2161 5.63382C13.908 5.63359 13.5996 5.63337 13.2916 5.63542C13.1463 5.63098 13.0009 5.64313 12.8582 5.67165C12.6889 5.70235 12.5274 5.76769 12.383 5.86376L12.3829 5.86363L12.3798 5.86611C12.2989 5.92979 12.2226 5.9994 12.1514 6.07441C12.0292 6.19262 11.9327 6.33628 11.8683 6.49581C11.8039 6.6554 11.7729 6.82728 11.7775 7.00009C11.7757 7.20475 11.7761 7.40962 11.7766 7.61415C11.7768 7.70465 11.777 7.79509 11.777 7.88542V8.49699V8.54699H11.827H16.1377ZM15.384 6.65237L15.3837 6.65253L15.387 6.65754C15.4752 6.79144 15.5213 6.95054 15.5187 7.11293C15.5116 7.24363 15.5128 7.37783 15.514 7.51017C15.5148 7.59736 15.5156 7.68375 15.514 7.76781C15.5092 7.79846 15.5015 7.82849 15.491 7.85746H12.4761C12.4648 7.83534 12.4562 7.81172 12.4507 7.78718C12.4368 7.54184 12.4379 7.29583 12.4539 7.05063C12.4863 6.75015 12.6006 6.50325 12.8925 6.39804L12.8925 6.39813L12.8954 6.39689C12.9278 6.38287 12.962 6.37431 12.9969 6.3715C13.0992 6.37121 13.2014 6.37088 13.3036 6.37055C13.8589 6.36876 14.4139 6.36696 14.9688 6.37274C15.0549 6.37791 15.1384 6.40617 15.2111 6.45493C15.2842 6.5039 15.3438 6.57191 15.384 6.65237Z" fill="#6B1E74" stroke="#6B1E74" stroke-width="0.1"/>
<path d="M21.2898 8.54642H21.2398H16.9291H16.8791V8.49642V7.77023C16.8791 7.68962 16.88 7.60951 16.8809 7.52972C16.883 7.34472 16.885 7.16149 16.8758 6.97797L16.8757 6.97439L16.8758 6.97439C16.8798 6.7888 16.9205 6.606 16.9955 6.43726C17.0796 6.19788 17.2654 6.04289 17.4356 5.9009C17.4458 5.89234 17.456 5.88383 17.4662 5.87535L17.4681 5.87376L17.4681 5.87381C17.6139 5.76351 17.7845 5.69333 17.9639 5.67003C18.1063 5.64542 18.2505 5.63388 18.3948 5.63557M21.2898 8.54642L18.3947 5.68557M21.2898 8.54642V8.49642C21.2898 8.35362 21.2896 8.21207 21.2895 8.07145C21.289 7.68849 21.2886 7.31234 21.2915 6.93612L21.2916 6.93613L21.2915 6.93334C21.2858 6.81391 21.263 6.696 21.2238 6.58345M21.2898 8.54642L21.2415 6.93573C21.236 6.8208 21.2141 6.70736 21.1763 6.59913M18.3948 5.63557C18.395 5.63557 18.3951 5.63557 18.3953 5.63557L18.3947 5.68557M18.3948 5.63557C18.3947 5.63557 18.3945 5.63557 18.3943 5.63557L18.3947 5.68557M18.3948 5.63557C18.7074 5.63326 19.0203 5.63352 19.3331 5.63378C19.5334 5.63394 19.7337 5.6341 19.9336 5.63359L19.9366 5.63359L19.9366 5.63367C20.1004 5.6428 20.2625 5.67256 20.4193 5.7223L20.4195 5.72236C20.5169 5.75366 20.6075 5.80397 20.6864 5.87048M18.3947 5.68557C18.7073 5.68326 19.02 5.68352 19.3326 5.68378C19.533 5.68394 19.7334 5.6841 19.9338 5.68359C20.0934 5.69249 20.2514 5.72149 20.4042 5.76996C20.4963 5.79956 20.582 5.84737 20.6565 5.91073M20.6864 5.87048C20.6855 5.86989 20.6845 5.86929 20.6836 5.8687L20.6565 5.91073M20.6864 5.87048C20.6872 5.8712 20.6881 5.87192 20.6889 5.87264L20.6565 5.91073M20.6864 5.87048C20.9412 6.03554 21.1314 6.28808 21.2238 6.58345M20.6565 5.91073C20.9029 6.0694 21.087 6.31327 21.1763 6.59913M21.1763 6.59913L21.2236 6.58267C21.2236 6.58293 21.2237 6.58319 21.2238 6.58345M21.1763 6.59913L21.2241 6.58422C21.224 6.58396 21.2239 6.5837 21.2238 6.58345M21.2398 8.44642C21.2398 8.46307 21.2398 8.47973 21.2398 8.49642V8.44642H21.2398ZM20.6151 7.09337L20.615 7.09337L20.6152 7.09657C20.624 7.26792 20.622 7.43891 20.6199 7.61183C20.619 7.68156 20.6182 7.75161 20.618 7.82212L20.5829 7.85844H17.5869C17.5753 7.85112 17.5656 7.8407 17.5587 7.82795C17.5502 7.81212 17.5467 7.7937 17.549 7.77547L17.5492 7.77551L17.5493 7.77017C17.5516 7.6364 17.5513 7.50066 17.5509 7.36549C17.5507 7.25799 17.5504 7.15085 17.5514 7.04537C17.5596 6.90033 17.6075 6.76083 17.6893 6.64324C17.7707 6.52627 17.8823 6.43587 18.011 6.38224C18.0529 6.37138 18.0961 6.36747 18.1392 6.37063L18.1392 6.37077L18.1429 6.37076C18.6828 6.3701 19.2227 6.37014 19.7607 6.37019C19.8892 6.3702 20.0175 6.37021 20.1457 6.37021C20.2188 6.41088 20.2895 6.45592 20.3575 6.50511C20.4391 6.57708 20.5045 6.66682 20.5491 6.7681C20.594 6.87008 20.6165 6.98117 20.6151 7.09337Z" fill="#6B1E74" stroke="#6B1E74" stroke-width="0.1"/>
</svg>
