<svg width="21" height="23" viewBox="0 0 21 23" fill="none" xmlns="http://www.w3.org/2000/svg">
<mask id="mask0_10009_1158" style="mask-type:alpha" maskUnits="userSpaceOnUse" x="0" y="0" width="21" height="23">
<rect x="0.5" width="20" height="23" fill="#D9D9D9"/>
</mask>
<g mask="url(#mask0_10009_1158)">
<path d="M11.1537 21.6297C13.3637 18.8639 18.4041 12.1606 18.4041 8.39543C18.4041 3.82892 14.6992 0.124023 10.1327 0.124023C5.56623 0.124023 1.86133 3.82892 1.86133 8.39543C1.86133 12.1606 6.90172 18.8639 9.11173 21.6297C9.64162 22.2888 10.6238 22.2888 11.1537 21.6297ZM10.1327 5.63829C10.864 5.63829 11.5653 5.92878 12.0823 6.44584C12.5994 6.9629 12.8899 7.66419 12.8899 8.39543C12.8899 9.12667 12.5994 9.82796 12.0823 10.345C11.5653 10.8621 10.864 11.1526 10.1327 11.1526C9.40149 11.1526 8.70021 10.8621 8.18314 10.345C7.66608 9.82796 7.3756 9.12667 7.3756 8.39543C7.3756 7.66419 7.66608 6.9629 8.18314 6.44584C8.70021 5.92878 9.40149 5.63829 10.1327 5.63829Z" fill="#6B1E74"/>
</g>
</svg>
