<svg width="15" height="15" viewBox="0 0 15 15" fill="none" xmlns="http://www.w3.org/2000/svg">
<path d="M11.4876 7.00114C11.4565 5.96084 11.2966 4.92833 11.0114 3.92703C11.5006 3.75551 11.9725 3.53868 12.421 3.2794C13.3244 4.32166 13.8676 5.62537 13.9705 6.9983H11.4876V7.00114ZM11.0114 11.0699C11.2968 10.0687 11.4567 9.03615 11.4876 7.99582H13.9781C13.8735 9.36835 13.3305 10.6715 12.4286 11.7147C11.9772 11.4574 11.5022 11.2415 11.0114 11.0699ZM10.68 12.0181C11.0247 12.1393 11.3605 12.2844 11.6848 12.4524C11.1375 12.9091 10.5188 13.2737 9.85333 13.5315C10.1901 13.0613 10.4683 12.5522 10.6819 12.0153L10.68 12.0181ZM4.31714 12.0181C4.52978 12.5552 4.80705 13.0647 5.14286 13.5353C4.47734 13.2778 3.85916 12.9126 3.31334 12.4543C3.63693 12.2835 3.97276 12.1368 4.3181 12.0153L4.31714 12.0181ZM3.51238 7.99772C3.54349 9.03802 3.70342 10.0705 3.98857 11.0718C3.49943 11.2434 3.02752 11.4602 2.57905 11.7195C1.67417 10.6766 1.12965 9.37195 1.02572 7.99772H3.51238ZM3.98857 3.92893C3.70321 4.93018 3.54326 5.96271 3.51238 7.00304H1.02572C1.12941 5.63129 1.67104 4.32851 2.57143 3.28509C3.02282 3.54246 3.49684 3.75828 3.98762 3.92988L3.98857 3.92893ZM4.32 2.98071C3.97529 2.85955 3.63954 2.71443 3.31524 2.54643C3.86089 2.09036 4.47839 1.72705 5.14286 1.47116C4.80765 1.94065 4.53071 2.44879 4.3181 2.98451L4.32 2.98071ZM9.85524 1.474C10.5213 1.73068 11.1401 2.09529 11.6867 2.55307C11.3629 2.72211 11.027 2.86726 10.6819 2.98735C10.47 2.45095 10.1923 1.94265 9.85524 1.474ZM8 3.50128V1.13833C8.81966 1.60931 9.43536 2.36552 9.72857 3.26139C9.16059 3.39181 8.58216 3.47209 8 3.50128ZM8 7.00114V4.49596C8.69428 4.46752 9.38416 4.37225 10.06 4.2115C10.315 5.12242 10.4586 6.06068 10.4876 7.00589H8V7.00114ZM8 10.5038V7.99772H10.4876C10.4586 8.94293 10.315 9.88118 10.06 10.7921C9.38425 10.6304 8.69437 10.5332 8 10.5038ZM8 11.4985C8.58215 11.5272 9.1606 11.6072 9.72857 11.7375C9.43556 12.6337 8.81984 13.3903 8 13.8615V11.4985ZM6.9981 11.4985V13.8615C6.17844 13.3905 5.56274 12.6343 5.26953 11.7384C5.83782 11.6079 6.41562 11.5277 6.9981 11.4985ZM6.9981 7.99867V10.5038C6.30395 10.5337 5.61421 10.629 4.9381 10.7883C4.68369 9.87858 4.54043 8.94161 4.51143 7.99772H6.99905L6.9981 7.99867ZM6.9981 4.49596V7.00114H4.51143C4.54029 6.0553 4.68387 5.11639 4.93905 4.20486C5.61467 4.36785 6.3036 4.46534 6.9981 4.49596ZM6.9981 3.50128C6.41595 3.4726 5.8375 3.39264 5.26953 3.26233C5.5618 2.36544 6.17813 1.60853 6.99905 1.13833L6.9981 3.50128ZM7.5 0.0327149C6.01664 0.0327149 4.56659 0.470658 3.33323 1.29116C2.09986 2.11167 1.13856 3.27788 0.570907 4.64234C0.00324964 6.00679 -0.145275 7.50819 0.144114 8.95668C0.433503 10.4052 1.14781 11.7357 2.1967 12.78C3.2456 13.8243 4.58197 14.5355 6.03682 14.8236C7.49168 15.1117 8.99968 14.9639 10.3701 14.3987C11.7406 13.8335 12.9119 12.8764 13.736 11.6485C14.5601 10.4205 15 8.97678 15 7.49991C15.0001 6.51926 14.8062 5.54821 14.4294 4.64219C14.0525 3.73617 13.5 2.91294 12.8036 2.21953C12.1071 1.52611 11.2803 0.976085 10.3703 0.600867C9.46028 0.22565 8.48495 0.0325904 7.5 0.0327149Z" fill="#6A2975"/>
</svg>
