<svg width="15" height="17" viewBox="0 0 15 17" fill="none" xmlns="http://www.w3.org/2000/svg">
<path d="M1.66667 16.8332C1.20833 16.8332 0.815972 16.67 0.489583 16.3436C0.163194 16.0172 0 15.6248 0 15.1665V3.49984C0 3.0415 0.163194 2.64914 0.489583 2.32275C0.815972 1.99637 1.20833 1.83317 1.66667 1.83317H5.16667C5.34722 1.33317 5.64931 0.930393 6.07292 0.624837C6.49653 0.319282 6.97222 0.166504 7.5 0.166504C8.02778 0.166504 8.50347 0.319282 8.92708 0.624837C9.35069 0.930393 9.65278 1.33317 9.83333 1.83317H13.3333C13.7917 1.83317 14.184 1.99637 14.5104 2.32275C14.8368 2.64914 15 3.0415 15 3.49984V15.1665C15 15.6248 14.8368 16.0172 14.5104 16.3436C14.184 16.67 13.7917 16.8332 13.3333 16.8332H1.66667ZM1.66667 15.1665H13.3333V3.49984H1.66667V15.1665ZM3.33333 13.4998H9.16667V11.8332H3.33333V13.4998ZM3.33333 10.1665H11.6667V8.49984H3.33333V10.1665ZM3.33333 6.83317H11.6667V5.1665H3.33333V6.83317ZM7.5 2.87484C7.68056 2.87484 7.82986 2.81581 7.94792 2.69775C8.06597 2.5797 8.125 2.43039 8.125 2.24984C8.125 2.06928 8.06597 1.91998 7.94792 1.80192C7.82986 1.68386 7.68056 1.62484 7.5 1.62484C7.31944 1.62484 7.17014 1.68386 7.05208 1.80192C6.93403 1.91998 6.875 2.06928 6.875 2.24984C6.875 2.43039 6.93403 2.5797 7.05208 2.69775C7.17014 2.81581 7.31944 2.87484 7.5 2.87484Z" fill="#6A2975"/>
</svg>
