<svg width="21" height="20" viewBox="0 0 21 20" fill="none" xmlns="http://www.w3.org/2000/svg">
<mask id="mask0_10009_1163" style="mask-type:alpha" maskUnits="userSpaceOnUse" x="0" y="0" width="21" height="20">
<rect x="0.5" width="19.876" height="19.876" fill="#D9D9D9"/>
</mask>
<g mask="url(#mask0_10009_1163)">
<path d="M13.656 14.152L14.9916 12.88L11.4618 9.51822V5.33878H9.55381V10.2451L13.656 14.152ZM10.5078 18.9674C9.18811 18.9674 7.9479 18.7289 6.7872 18.2519C5.62649 17.7749 4.61684 17.1275 3.75824 16.3098C2.89963 15.4921 2.2199 14.5305 1.71905 13.4251C1.2182 12.3197 0.967773 11.1385 0.967773 9.88165C0.967773 8.62479 1.2182 7.44364 1.71905 6.33821C2.2199 5.23278 2.89963 4.2712 3.75824 3.45348C4.61684 2.63576 5.62649 1.9884 6.7872 1.5114C7.9479 1.0344 9.18811 0.795898 10.5078 0.795898C11.8275 0.795898 13.0677 1.0344 14.2284 1.5114C15.3891 1.9884 16.3988 2.63576 17.2574 3.45348C18.116 4.2712 18.7957 5.23278 19.2966 6.33821C19.7974 7.44364 20.0479 8.62479 20.0479 9.88165C20.0479 11.1385 19.7974 12.3197 19.2966 13.4251C18.7957 14.5305 18.116 15.4921 17.2574 16.3098C16.3988 17.1275 15.3891 17.7749 14.2284 18.2519C13.0677 18.7289 11.8275 18.9674 10.5078 18.9674Z" fill="#6B1E74"/>
</g>
</svg>
