<svg width="22" height="21" viewBox="0 0 22 21" fill="none" xmlns="http://www.w3.org/2000/svg">
<path d="M7.26318 1.00986C6.94737 0.247008 6.11479 -0.159029 5.31912 0.0583441L1.70991 1.04268C0.996267 1.23954 0.5 1.88756 0.5 2.62581C0.5 12.7726 8.72737 21 18.8742 21C19.6124 21 20.2605 20.5037 20.4573 19.7901L21.4417 16.1809C21.659 15.3852 21.253 14.5526 20.4901 14.2368L16.5528 12.5963C15.8843 12.3174 15.1091 12.5101 14.6539 13.072L12.9969 15.094C10.1095 13.7282 7.77175 11.3905 6.40599 8.50309L8.42797 6.85023C8.98986 6.39088 9.18262 5.61982 8.90373 4.95129L7.26318 1.01397V1.00986Z" fill="#6B1E74"/>
</svg>
