<svg width="25" height="24" viewBox="0 0 25 24" fill="none" xmlns="http://www.w3.org/2000/svg">
<g clip-path="url(#clip0_7702_1522)">
<path d="M6.05853 7.72095H1.24049C1.02666 7.72095 0.853394 7.89429 0.853394 8.10804V23.5863C0.853394 23.8002 1.02666 23.9734 1.24049 23.9734H6.05853C6.27236 23.9734 6.44563 23.8002 6.44563 23.5863V8.10804C6.44563 7.89429 6.27236 7.72095 6.05853 7.72095Z" fill="#6B1E74"/>
<path d="M3.65123 0.0263672C1.89814 0.0263672 0.471924 1.45104 0.471924 3.20219C0.471924 4.95411 1.89814 6.37932 3.65123 6.37932C5.40292 6.37932 6.82798 4.95403 6.82798 3.20219C6.82805 1.45104 5.40292 0.0263672 3.65123 0.0263672Z" fill="#6B1E74"/>
<path d="M18.3135 7.33618C16.3784 7.33618 14.948 8.16805 14.0803 9.11326V8.10798C14.0803 7.89422 13.9071 7.72088 13.6932 7.72088H9.07911C8.86528 7.72088 8.69202 7.89422 8.69202 8.10798V23.5863C8.69202 23.8001 8.86528 23.9734 9.07911 23.9734H13.8866C14.1005 23.9734 14.2737 23.8001 14.2737 23.5863V15.9281C14.2737 13.3475 14.9747 12.3421 16.7736 12.3421C18.7328 12.3421 18.8885 13.9538 18.8885 16.0609V23.5863C18.8885 23.8002 19.0617 23.9734 19.2756 23.9734H24.0848C24.2987 23.9734 24.4719 23.8002 24.4719 23.5863V15.0962C24.4719 11.2589 23.7402 7.33618 18.3135 7.33618Z" fill="#6B1E74"/>
</g>
<defs>
<clipPath id="clip0_7702_1522">
<rect width="24" height="24" fill="white" transform="translate(0.471924)"/>
</clipPath>
</defs>
</svg>
