<svg width="24" height="25" viewBox="0 0 24 25" fill="none" xmlns="http://www.w3.org/2000/svg">
<mask id="mask0_9677_3422" style="mask-type:alpha" maskUnits="userSpaceOnUse" x="0" y="0" width="24" height="25">
<rect y="0.908203" width="24" height="24" fill="#D9D9D9"/>
</mask>
<g mask="url(#mask0_9677_3422)">
<path d="M13 16.6582V15.1582H17V16.6582H13ZM14.5 21.9082V20.6582H13V19.1582H14.5V17.9082H16V21.9082H14.5ZM17 20.6582V19.1582H21V20.6582H17ZM18 17.9082V13.9082H19.5V15.1582H21V16.6582H19.5V17.9082H18ZM20.775 10.9082H18.7C18.2667 9.44154 17.4417 8.24154 16.225 7.3082C15.0083 6.37487 13.6 5.9082 12 5.9082C10.05 5.9082 8.39583 6.58737 7.0375 7.9457C5.67917 9.30404 5 10.9582 5 12.9082C5 14.1082 5.27083 15.2082 5.8125 16.2082C6.35417 17.2082 7.08333 18.0249 8 18.6582V15.9082H10V21.9082H4V19.9082H6.35C5.31667 19.0749 4.5 18.054 3.9 16.8457C3.3 15.6374 3 14.3249 3 12.9082C3 11.6582 3.2375 10.4874 3.7125 9.3957C4.1875 8.30404 4.82917 7.35404 5.6375 6.5457C6.44583 5.73737 7.39583 5.0957 8.4875 4.6207C9.57917 4.1457 10.75 3.9082 12 3.9082C14.15 3.9082 16.0375 4.5707 17.6625 5.8957C19.2875 7.2207 20.325 8.89154 20.775 10.9082Z" fill="#6B1E74"/>
</g>
</svg>
