<svg width="21" height="22" viewBox="0 0 21 22" fill="none" xmlns="http://www.w3.org/2000/svg">
<path d="M16.2444 14.9699L15.9778 15.3184L16.2888 15.628L20.2913 19.6131L19.151 20.7485L15.1453 16.7603L14.837 16.4534L14.4904 16.7163C12.9852 17.8578 11.1417 18.4697 9.24909 18.4556V18.4556L9.2423 18.4556C8.09197 18.4627 6.95172 18.2424 5.88769 17.8074C4.82367 17.3724 3.85711 16.7316 3.044 15.922C2.2309 15.1125 1.58743 14.1504 1.1508 13.0916C0.714175 12.0328 0.49304 10.8983 0.500167 9.75395H0.500206L0.500167 9.74773C0.49304 8.60333 0.714175 7.46886 1.1508 6.41009C1.58743 5.35131 2.2309 4.38922 3.044 3.57968C3.85711 2.77013 4.82367 2.12924 5.88769 1.69428C6.95172 1.25931 8.09197 1.03896 9.2423 1.04606L9.2423 1.0461L9.24847 1.04606C10.3988 1.03896 11.539 1.25931 12.6031 1.69428C13.6671 2.12924 14.6337 2.77013 15.4468 3.57968C16.2599 4.38922 16.9033 5.35131 17.34 6.41009C17.7766 7.46886 17.9977 8.60333 17.9906 9.74773L17.9906 9.74773L17.9906 9.75458C18.0047 11.6373 17.3907 13.4717 16.2444 14.9699ZM2.66413 7.03485C2.31063 7.89663 2.13301 8.81991 2.14164 9.75084C2.13301 10.6818 2.31063 11.6051 2.66413 12.4668C3.01825 13.3301 3.54172 14.1143 4.20379 14.7735C4.86586 15.4326 5.65321 15.9536 6.51972 16.3059C7.38469 16.6576 8.31126 16.8343 9.24538 16.8257C10.1795 16.8343 11.1061 16.6576 11.971 16.3059C12.8376 15.9536 13.6249 15.4326 14.287 14.7735C14.949 14.1143 15.4725 13.3301 15.8266 12.4668C16.1801 11.6051 16.3578 10.6818 16.3491 9.75084C16.3578 8.81991 16.1801 7.89663 15.8266 7.03485C15.4725 6.17154 14.949 5.38738 14.287 4.72821C13.6249 4.06904 12.8376 3.5481 11.971 3.19577C11.1061 2.84406 10.1795 2.66739 9.24538 2.67598C8.31126 2.66739 7.38469 2.84406 6.51972 3.19577C5.65321 3.5481 4.86586 4.06904 4.20379 4.72821C3.54172 5.38738 3.01825 6.17154 2.66413 7.03485Z" fill="#6B1E74" stroke="#6B1E74"/>
</svg>
