<svg width="21" height="20" viewBox="0 0 21 20" fill="none" xmlns="http://www.w3.org/2000/svg">
<path d="M4.59395 6.75659H0.503449C0.321906 6.75659 0.174805 6.89625 0.174805 7.06848V19.5394C0.174805 19.7117 0.321906 19.8513 0.503449 19.8513H4.59395C4.77549 19.8513 4.92259 19.7117 4.92259 19.5394V7.06848C4.92259 6.89625 4.77549 6.75659 4.59395 6.75659Z" fill="white"/>
<path d="M2.54965 0.804443C1.24015 0.804443 0.174805 1.87227 0.174805 3.18481C0.174805 4.49793 1.24015 5.56616 2.54965 5.56616C3.85811 5.56616 4.92259 4.49787 4.92259 3.18481C4.92265 1.87227 3.85811 0.804443 2.54965 0.804443Z" fill="white"/>
<path d="M15.2578 5.56616C13.6567 5.56616 12.4731 6.28043 11.7552 7.09201V6.22884C11.7552 6.04531 11.6118 5.89647 11.4349 5.89647H7.61716C7.44024 5.89647 7.29688 6.04531 7.29688 6.22884V19.5189C7.29688 19.7025 7.44024 19.8513 7.61716 19.8513H11.5949C11.7719 19.8513 11.9152 19.7025 11.9152 19.5189V12.9434C11.9152 10.7276 12.4952 9.86438 13.9836 9.86438C15.6047 9.86438 15.7335 11.2482 15.7335 13.0574V19.5189C15.7335 19.7026 15.8768 19.8513 16.0538 19.8513H20.033C20.2099 19.8513 20.3533 19.7026 20.3533 19.5189V12.2291C20.3533 8.93434 19.7479 5.56616 15.2578 5.56616Z" fill="white"/>
</svg>
