<svg width="32" height="32" viewBox="0 0 32 32" fill="none" xmlns="http://www.w3.org/2000/svg">
<path d="M0 16C0 24.8366 7.16344 32 16 32C24.8366 32 32 24.8366 32 16C32 7.16344 24.8366 0 16 0C7.16344 0 0 7.16344 0 16Z" fill="#6B1E74"/>
<path d="M11.5939 11.7566H7.50345C7.32191 11.7566 7.1748 11.8963 7.1748 12.0685V24.5394C7.1748 24.7117 7.32191 24.8513 7.50345 24.8513H11.5939C11.7755 24.8513 11.9226 24.7117 11.9226 24.5394V12.0685C11.9226 11.8963 11.7755 11.7566 11.5939 11.7566Z" fill="white"/>
<path d="M9.54965 5.80444C8.24015 5.80444 7.1748 6.87227 7.1748 8.18481C7.1748 9.49793 8.24015 10.5662 9.54965 10.5662C10.8581 10.5662 11.9226 9.49787 11.9226 8.18481C11.9226 6.87227 10.8581 5.80444 9.54965 5.80444Z" fill="white"/>
<path d="M22.2578 10.5662C20.6567 10.5662 19.4731 11.2804 18.7552 12.092V11.2288C18.7552 11.0453 18.6118 10.8965 18.4349 10.8965H14.6172C14.4402 10.8965 14.2969 11.0453 14.2969 11.2288V24.5189C14.2969 24.7025 14.4402 24.8513 14.6172 24.8513H18.5949C18.7719 24.8513 18.9152 24.7025 18.9152 24.5189V17.9434C18.9152 15.7276 19.4952 14.8644 20.9836 14.8644C22.6047 14.8644 22.7335 16.2482 22.7335 18.0574V24.5189C22.7335 24.7026 22.8768 24.8513 23.0538 24.8513H27.033C27.2099 24.8513 27.3533 24.7026 27.3533 24.5189V17.2291C27.3533 13.9343 26.7479 10.5662 22.2578 10.5662Z" fill="white"/>
</svg>
