<svg width="32" height="32" viewBox="0 0 32 32" fill="none" xmlns="http://www.w3.org/2000/svg">
<path d="M0 15.9532C0 7.14248 7.1893 0 16 0C24.8107 0 32 7.14248 32 15.9532C32 24.7639 24.8107 31.9064 16 31.9064C7.1893 31.9064 0 24.7639 0 15.9532Z" fill="#6B1E74"/>
<path fill-rule="evenodd" clip-rule="evenodd" d="M17.2017 28.344V18.0744H20.7372L21.2421 14.066H17.2017V11.5553C17.2017 10.4283 17.5801 9.55111 19.2225 9.55111H21.3698V5.92491C20.8638 5.92491 19.5963 5.79943 18.2115 5.79943C17.5085 5.75316 16.8038 5.85855 16.1458 6.10835C15.4879 6.35816 14.8923 6.74644 14.4002 7.24645C13.908 7.74646 13.531 8.34632 13.2951 9.00472C13.0592 9.66312 12.97 10.3644 13.0336 11.0603V14.066H9.49805V18.0744H13.0336V28.3452L17.2017 28.344Z" fill="white"/>
</svg>
